<?xml version="1.0" encoding="utf-8"?><svg width="auto" height="2420" style="overflow:visible " version="1.1" xmlns="http://www.w3.org/2000/svg"><rect x="20" y="20" width="200" height="40" style="fill:white;stroke:black;stroke-width:1" /><text x="30" y="30" font-size="10" style="fill:blue">xs:schema</text><text x="30" y="40" font-size="8" style="fill:black">xmlns: http://tempuri.org/personas</text><text x="30" y="50" font-size="8" style="fill:black">elementFormDefault: qualified</text><text x="30" y="60" font-size="8" style="fill:black">targetNamespace: http://tempuri.org/personas</text><text x="30" y="70" font-size="8" style="fill:black">xmlns:xs: http://www.w3.org/2001/XMLSchema</text><rect x="240" y="20" width="200" height="40" style="fill:white;stroke:black;stroke-width:1" /><text x="250" y="30" font-size="10" style="fill:blue">xs:element</text><path d="M220 40 C240 40 220 40 240 40" style="fill:transparent;stroke:black" /><text x="250" y="40" font-size="8" style="fill:black">name: persona</text><rect x="460" y="20" width="200" height="40" style="fill:white;stroke:black;stroke-width:1" /><text x="470" y="30" font-size="10" style="fill:blue">xs:complexType</text><path d="M440 40 C460 40 440 40 460 40" style="fill:transparent;stroke:black" /><rect x="680" y="20" width="200" height="40" style="fill:white;stroke:black;stroke-width:1" /><text x="690" y="30" font-size="10" style="fill:blue">xs:sequence</text><path d="M660 40 C680 40 660 40 680 40" style="fill:transparent;stroke:black" /><rect x="900" y="20" width="200" height="40" style="fill:white;stroke:black;stroke-width:1" /><text x="910" y="30" font-size="10" style="fill:blue">xs:element</text><path d="M880 40 C900 40 880 40 900 40" style="fill:transparent;stroke:black" /><text x="910" y="40" font-size="8" style="fill:black">ref: datos</text><rect x="900" y="70" width="200" height="40" style="fill:white;stroke:black;stroke-width:1" /><text x="910" y="80" font-size="10" style="fill:blue">xs:sequence</text><path d="M880 40 C900 40 880 90 900 90" style="fill:transparent;stroke:black" /><text x="910" y="90" font-size="8" style="fill:black">minOccurs: 0</text><text x="910" y="100" font-size="8" style="fill:black">maxOccurs: 3</text><rect x="1120" y="70" width="200" height="40" style="fill:white;stroke:black;stroke-width:1" /><text x="1130" y="80" font-size="10" style="fill:blue">xs:element</text><path d="M1100 90 C1120 90 1100 90 1120 90" style="fill:transparent;stroke:black" /><text x="1130" y="90" font-size="8" style="fill:black">ref: persona</text><rect x="1120" y="120" width="200" height="40" style="fill:white;stroke:black;stroke-width:1" /><text x="1130" y="130" font-size="10" style="fill:blue">xs:element</text><path d="M1100 90 C1120 90 1100 140 1120 140" style="fill:transparent;stroke:black" /><text x="1130" y="140" font-size="8" style="fill:black">ref: persona</text><rect x="1120" y="170" width="200" height="40" style="fill:white;stroke:black;stroke-width:1" /><text x="1130" y="180" font-size="10" style="fill:blue">xs:element</text><path d="M1100 90 C1120 90 1100 190 1120 190" style="fill:transparent;stroke:black" /><text x="1130" y="190" font-size="8" style="fill:black">ref: persona</text><rect x="680" y="320" width="200" height="40" style="fill:white;stroke:black;stroke-width:1" /><text x="690" y="330" font-size="10" style="fill:blue">xs:attribute</text><path d="M660 40 C680 40 660 340 680 340" style="fill:transparent;stroke:black" /><text x="690" y="340" font-size="8" style="fill:black">name: nombre</text><text x="690" y="350" font-size="8" style="fill:black">type: xs:string</text><text x="690" y="360" font-size="8" style="fill:black">use: required</text><rect x="680" y="370" width="200" height="40" style="fill:white;stroke:black;stroke-width:1" /><text x="690" y="380" font-size="10" style="fill:blue">xs:attribute</text><path d="M660 40 C680 40 660 390 680 390" style="fill:transparent;stroke:black" /><text x="690" y="390" font-size="8" style="fill:black">name: apellidos</text><text x="690" y="400" font-size="8" style="fill:black">type: xs:string</text><text x="690" y="410" font-size="8" style="fill:black">use: required</text><rect x="680" y="420" width="200" height="40" style="fill:white;stroke:black;stroke-width:1" /><text x="690" y="430" font-size="10" style="fill:blue">xs:attribute</text><path d="M660 40 C680 40 660 440 680 440" style="fill:transparent;stroke:black" /><text x="690" y="440" font-size="8" style="fill:black">name: fecha_nacimiento</text><text x="690" y="450" font-size="8" style="fill:black">type: xs:date</text><text x="690" y="460" font-size="8" style="fill:black">use: required</text><rect x="680" y="470" width="200" height="40" style="fill:white;stroke:black;stroke-width:1" /><text x="690" y="480" font-size="10" style="fill:blue">xs:attribute</text><path d="M660 40 C680 40 660 490 680 490" style="fill:transparent;stroke:black" /><text x="690" y="490" font-size="8" style="fill:black">name: comentarios</text><text x="690" y="500" font-size="8" style="fill:black">type: xs:string</text><text x="690" y="510" font-size="8" style="fill:black">use: required</text><rect x="240" y="620" width="200" height="40" style="fill:white;stroke:black;stroke-width:1" /><text x="250" y="630" font-size="10" style="fill:blue">xs:element</text><path d="M220 40 C240 40 220 640 240 640" style="fill:transparent;stroke:black" /><text x="250" y="640" font-size="8" style="fill:black">name: datos</text><rect x="460" y="620" width="200" height="40" style="fill:white;stroke:black;stroke-width:1" /><text x="470" y="630" font-size="10" style="fill:blue">xs:complexType</text><path d="M440 640 C460 640 440 640 460 640" style="fill:transparent;stroke:black" /><rect x="680" y="620" width="200" height="40" style="fill:white;stroke:black;stroke-width:1" /><text x="690" y="630" font-size="10" style="fill:blue">xs:sequence</text><path d="M660 640 C680 640 660 640 680 640" style="fill:transparent;stroke:black" /><rect x="900" y="620" width="200" height="40" style="fill:white;stroke:black;stroke-width:1" /><text x="910" y="630" font-size="10" style="fill:blue">xs:element</text><path d="M880 640 C900 640 880 640 900 640" style="fill:transparent;stroke:black" /><text x="910" y="640" font-size="8" style="fill:black">ref: lugar_nacimiento</text><rect x="900" y="670" width="200" height="40" style="fill:white;stroke:black;stroke-width:1" /><text x="910" y="680" font-size="10" style="fill:blue">xs:element</text><path d="M880 640 C900 640 880 690 900 690" style="fill:transparent;stroke:black" /><text x="910" y="690" font-size="8" style="fill:black">ref: lugar_residencia</text><rect x="900" y="720" width="200" height="40" style="fill:white;stroke:black;stroke-width:1" /><text x="910" y="730" font-size="10" style="fill:blue">xs:element</text><path d="M880 640 C900 640 880 740 900 740" style="fill:transparent;stroke:black" /><text x="910" y="740" font-size="8" style="fill:black">ref: imagenes</text><rect x="900" y="770" width="200" height="40" style="fill:white;stroke:black;stroke-width:1" /><text x="910" y="780" font-size="10" style="fill:blue">xs:element</text><path d="M880 640 C900 640 880 790 900 790" style="fill:transparent;stroke:black" /><text x="910" y="790" font-size="8" style="fill:black">ref: videos</text><rect x="240" y="970" width="200" height="40" style="fill:white;stroke:black;stroke-width:1" /><text x="250" y="980" font-size="10" style="fill:blue">xs:element</text><path d="M220 40 C240 40 220 990 240 990" style="fill:transparent;stroke:black" /><text x="250" y="990" font-size="8" style="fill:black">name: lugar_nacimiento</text><rect x="460" y="970" width="200" height="40" style="fill:white;stroke:black;stroke-width:1" /><text x="470" y="980" font-size="10" style="fill:blue">xs:complexType</text><path d="M440 990 C460 990 440 990 460 990" style="fill:transparent;stroke:black" /><rect x="680" y="970" width="200" height="40" style="fill:white;stroke:black;stroke-width:1" /><text x="690" y="980" font-size="10" style="fill:blue">xs:sequence</text><path d="M660 990 C680 990 660 990 680 990" style="fill:transparent;stroke:black" /><rect x="900" y="970" width="200" height="40" style="fill:white;stroke:black;stroke-width:1" /><text x="910" y="980" font-size="10" style="fill:blue">xs:element</text><path d="M880 990 C900 990 880 990 900 990" style="fill:transparent;stroke:black" /><text x="910" y="990" font-size="8" style="fill:black">ref: nombre</text><rect x="900" y="1020" width="200" height="40" style="fill:white;stroke:black;stroke-width:1" /><text x="910" y="1030" font-size="10" style="fill:blue">xs:element</text><path d="M880 990 C900 990 880 1040 900 1040" style="fill:transparent;stroke:black" /><text x="910" y="1040" font-size="8" style="fill:black">ref: coordenada</text><rect x="240" y="1220" width="200" height="40" style="fill:white;stroke:black;stroke-width:1" /><text x="250" y="1230" font-size="10" style="fill:blue">xs:element</text><path d="M220 40 C240 40 220 1240 240 1240" style="fill:transparent;stroke:black" /><text x="250" y="1240" font-size="8" style="fill:black">name: lugar_residencia</text><rect x="460" y="1220" width="200" height="40" style="fill:white;stroke:black;stroke-width:1" /><text x="470" y="1230" font-size="10" style="fill:blue">xs:complexType</text><path d="M440 1240 C460 1240 440 1240 460 1240" style="fill:transparent;stroke:black" /><rect x="680" y="1220" width="200" height="40" style="fill:white;stroke:black;stroke-width:1" /><text x="690" y="1230" font-size="10" style="fill:blue">xs:sequence</text><path d="M660 1240 C680 1240 660 1240 680 1240" style="fill:transparent;stroke:black" /><rect x="900" y="1220" width="200" height="40" style="fill:white;stroke:black;stroke-width:1" /><text x="910" y="1230" font-size="10" style="fill:blue">xs:element</text><path d="M880 1240 C900 1240 880 1240 900 1240" style="fill:transparent;stroke:black" /><text x="910" y="1240" font-size="8" style="fill:black">ref: nombre</text><rect x="900" y="1270" width="200" height="40" style="fill:white;stroke:black;stroke-width:1" /><text x="910" y="1280" font-size="10" style="fill:blue">xs:element</text><path d="M880 1240 C900 1240 880 1290 900 1290" style="fill:transparent;stroke:black" /><text x="910" y="1290" font-size="8" style="fill:black">ref: coordenada</text><rect x="240" y="1470" width="200" height="40" style="fill:white;stroke:black;stroke-width:1" /><text x="250" y="1480" font-size="10" style="fill:blue">xs:element</text><path d="M220 40 C240 40 220 1490 240 1490" style="fill:transparent;stroke:black" /><text x="250" y="1490" font-size="8" style="fill:black">name: imagenes</text><rect x="460" y="1470" width="200" height="40" style="fill:white;stroke:black;stroke-width:1" /><text x="470" y="1480" font-size="10" style="fill:blue">xs:complexType</text><path d="M440 1490 C460 1490 440 1490 460 1490" style="fill:transparent;stroke:black" /><rect x="680" y="1470" width="200" height="40" style="fill:white;stroke:black;stroke-width:1" /><text x="690" y="1480" font-size="10" style="fill:blue">xs:sequence</text><path d="M660 1490 C680 1490 660 1490 680 1490" style="fill:transparent;stroke:black" /><text x="690" y="1490" font-size="8" style="fill:black">minOccurs: 1</text><text x="690" y="1500" font-size="8" style="fill:black">maxOccurs: unbounded</text><rect x="900" y="1470" width="200" height="40" style="fill:white;stroke:black;stroke-width:1" /><text x="910" y="1480" font-size="10" style="fill:blue">xs:element</text><path d="M880 1490 C900 1490 880 1490 900 1490" style="fill:transparent;stroke:black" /><text x="910" y="1490" font-size="8" style="fill:black">ref: imagen</text><rect x="240" y="1670" width="200" height="40" style="fill:white;stroke:black;stroke-width:1" /><text x="250" y="1680" font-size="10" style="fill:blue">xs:element</text><path d="M220 40 C240 40 220 1690 240 1690" style="fill:transparent;stroke:black" /><text x="250" y="1690" font-size="8" style="fill:black">name: videos</text><rect x="460" y="1670" width="200" height="40" style="fill:white;stroke:black;stroke-width:1" /><text x="470" y="1680" font-size="10" style="fill:blue">xs:complexType</text><path d="M440 1690 C460 1690 440 1690 460 1690" style="fill:transparent;stroke:black" /><rect x="680" y="1670" width="200" height="40" style="fill:white;stroke:black;stroke-width:1" /><text x="690" y="1680" font-size="10" style="fill:blue">xs:sequence</text><path d="M660 1690 C680 1690 660 1690 680 1690" style="fill:transparent;stroke:black" /><text x="690" y="1690" font-size="8" style="fill:black">minOccurs: 0</text><text x="690" y="1700" font-size="8" style="fill:black">maxOccurs: 3</text><rect x="900" y="1670" width="200" height="40" style="fill:white;stroke:black;stroke-width:1" /><text x="910" y="1680" font-size="10" style="fill:blue">xs:element</text><path d="M880 1690 C900 1690 880 1690 900 1690" style="fill:transparent;stroke:black" /><text x="910" y="1690" font-size="8" style="fill:black">ref: video</text><rect x="240" y="1870" width="200" height="40" style="fill:white;stroke:black;stroke-width:1" /><text x="250" y="1880" font-size="10" style="fill:blue">xs:element</text><path d="M220 40 C240 40 220 1890 240 1890" style="fill:transparent;stroke:black" /><text x="250" y="1890" font-size="8" style="fill:black">name: imagen</text><text x="250" y="1900" font-size="8" style="fill:black">type: xs:anyURI</text><rect x="240" y="1920" width="200" height="40" style="fill:white;stroke:black;stroke-width:1" /><text x="250" y="1930" font-size="10" style="fill:blue">xs:element</text><path d="M220 40 C240 40 220 1940 240 1940" style="fill:transparent;stroke:black" /><text x="250" y="1940" font-size="8" style="fill:black">name: video</text><text x="250" y="1950" font-size="8" style="fill:black">type: xs:anyURI</text><rect x="240" y="1970" width="200" height="40" style="fill:white;stroke:black;stroke-width:1" /><text x="250" y="1980" font-size="10" style="fill:blue">xs:element</text><path d="M220 40 C240 40 220 1990 240 1990" style="fill:transparent;stroke:black" /><text x="250" y="1990" font-size="8" style="fill:black">name: nombre</text><text x="250" y="2000" font-size="8" style="fill:black">type: xs:string</text><rect x="240" y="2020" width="200" height="40" style="fill:white;stroke:black;stroke-width:1" /><text x="250" y="2030" font-size="10" style="fill:blue">xs:element</text><path d="M220 40 C240 40 220 2040 240 2040" style="fill:transparent;stroke:black" /><text x="250" y="2040" font-size="8" style="fill:black">name: coordenada</text><rect x="460" y="2020" width="200" height="40" style="fill:white;stroke:black;stroke-width:1" /><text x="470" y="2030" font-size="10" style="fill:blue">xs:complexType</text><path d="M440 2040 C460 2040 440 2040 460 2040" style="fill:transparent;stroke:black" /><rect x="680" y="2020" width="200" height="40" style="fill:white;stroke:black;stroke-width:1" /><text x="690" y="2030" font-size="10" style="fill:blue">xs:simpleContent</text><path d="M660 2040 C680 2040 660 2040 680 2040" style="fill:transparent;stroke:black" /><rect x="900" y="2020" width="200" height="40" style="fill:white;stroke:black;stroke-width:1" /><text x="910" y="2030" font-size="10" style="fill:blue">xs:extension</text><path d="M880 2040 C900 2040 880 2040 900 2040" style="fill:transparent;stroke:black" /><text x="910" y="2040" font-size="8" style="fill:black">base: xs:string</text><rect x="1120" y="2020" width="200" height="40" style="fill:white;stroke:black;stroke-width:1" /><text x="1130" y="2030" font-size="10" style="fill:blue">xs:attribute</text><path d="M1100 2040 C1120 2040 1100 2040 1120 2040" style="fill:transparent;stroke:black" /><text x="1130" y="2040" font-size="8" style="fill:black">name: longitud</text><text x="1130" y="2050" font-size="8" style="fill:black">type: xs:decimal</text><text x="1130" y="2060" font-size="8" style="fill:black">use: required</text><rect x="1120" y="2070" width="200" height="40" style="fill:white;stroke:black;stroke-width:1" /><text x="1130" y="2080" font-size="10" style="fill:blue">xs:attribute</text><path d="M1100 2040 C1120 2040 1100 2090 1120 2090" style="fill:transparent;stroke:black" /><text x="1130" y="2090" font-size="8" style="fill:black">name: latitud</text><text x="1130" y="2100" font-size="8" style="fill:black">type: xs:decimal</text><text x="1130" y="2110" font-size="8" style="fill:black">use: required</text><rect x="1120" y="2120" width="200" height="40" style="fill:white;stroke:black;stroke-width:1" /><text x="1130" y="2130" font-size="10" style="fill:blue">xs:attribute</text><path d="M1100 2040 C1120 2040 1100 2140 1120 2140" style="fill:transparent;stroke:black" /><text x="1130" y="2140" font-size="8" style="fill:black">name: altitud</text><text x="1130" y="2150" font-size="8" style="fill:black">type: xs:decimal</text><text x="1130" y="2160" font-size="8" style="fill:black">use: required</text></svg>